<svg xmlns="http://www.w3.org/2000/svg" width="28" height="29" viewBox="0 0 28 29" fill="none">
<path d="M18.6226 14.5294C20.0083 13.5483 21.046 12.1519 21.5855 10.5421C22.125 8.93223 22.1383 7.19251 21.6236 5.5746C21.1088 3.95668 20.0927 2.54449 18.7222 1.54232C17.3517 0.540157 15.6979 0 14.0001 0C12.3023 0 10.6485 0.540157 9.27798 1.54232C7.90748 2.54449 6.89136 3.95668 6.37662 5.5746C5.86188 7.19251 5.87523 8.93223 6.41472 10.5421C6.95422 12.1519 7.99189 13.5483 9.3776 14.5294C6.67533 15.3169 4.30101 16.9588 2.61039 19.2092C0.919773 21.4596 0.003899 24.1972 0 27.0119C0 27.2771 0.105357 27.5315 0.292893 27.719C0.48043 27.9065 0.734784 28.0119 1 28.0119H27C27.2652 28.0119 27.5196 27.9065 27.7071 27.719C27.8946 27.5315 28 27.2771 28 27.0119C27.9961 24.1973 27.0803 21.4596 25.3897 19.2093C23.6991 16.9589 21.3248 15.3169 18.6226 14.5294ZM8 8.01191C8 6.82522 8.35189 5.66518 9.01118 4.67848C9.67047 3.69179 10.6075 2.92275 11.7039 2.46863C12.8003 2.0145 14.0067 1.89568 15.1705 2.12719C16.3344 2.35871 17.4035 2.93015 18.2426 3.76927C19.0818 4.60838 19.6532 5.67748 19.8847 6.84136C20.1162 8.00525 19.9974 9.21165 19.5433 10.308C19.0892 11.4044 18.3201 12.3414 17.3334 13.0007C16.3467 13.66 15.1867 14.0119 14 14.0119C12.4093 14.0101 10.8842 13.3774 9.75936 12.2525C8.63454 11.1277 8.00181 9.60265 8 8.01191ZM2.045 26.0119C2.29772 23.2802 3.56076 20.7411 5.58694 18.8915C7.61313 17.042 10.2566 16.0151 13 16.0119H15C17.7434 16.0151 20.3869 17.042 22.4131 18.8915C24.4392 20.7411 25.7023 23.2802 25.955 26.0119H2.045Z" fill="white"/>
</svg>