<svg xmlns="http://www.w3.org/2000/svg" width="30" height="30" viewBox="0 0 30 30" fill="none">
<path d="M14.9998 2.57813C12.6339 2.5768 10.3168 3.25144 8.32133 4.52264C6.32586 5.79385 4.73511 7.60866 3.73634 9.75347C2.73757 11.8983 2.37234 14.2838 2.68365 16.6292C2.99497 18.9746 3.96987 21.1822 5.4936 22.9922C5.61547 23.1422 5.74204 23.2828 5.88735 23.4609C5.92855 23.5011 5.96765 23.5433 6.00454 23.5875C6.07485 23.6625 6.14985 23.7328 6.22016 23.8031L6.30454 23.8875L6.42172 24C6.57172 24.1453 6.72172 24.2813 6.86704 24.3984C7.01235 24.5156 7.20922 24.6938 7.37329 24.8156C7.53735 24.9375 7.67329 25.0453 7.84204 25.1531L7.97329 25.2422C8.07172 25.3125 8.17485 25.3828 8.25922 25.4344L8.54516 25.6125H8.57329C8.92485 25.8234 9.26235 26.0063 9.60454 26.175H9.6561C9.8061 26.25 9.96079 26.3156 10.1248 26.3766C10.7053 26.625 11.3039 26.8287 11.9155 26.9859C12.0983 27.0328 12.2811 27.075 12.4686 27.1125C12.6561 27.15 12.8248 27.1875 12.9889 27.2109L13.2092 27.2438C13.3405 27.2672 13.4811 27.2813 13.6123 27.2953L13.8561 27.3234C13.9967 27.3234 14.1467 27.3234 14.2967 27.3516H14.4186C14.6155 27.3516 14.8123 27.3516 15.0092 27.3516C15.2061 27.3516 15.403 27.3516 15.5998 27.3516H15.7217C15.8717 27.3516 16.0217 27.3516 16.1905 27.3188L16.4014 27.2953C16.5467 27.2953 16.6873 27.2672 16.7764 27.2484L17.0155 27.2109C17.203 27.2109 17.3811 27.15 17.5592 27.1125L18.1264 26.9859C18.7293 26.8275 19.3199 26.6253 19.8936 26.3813C20.0483 26.3156 20.1983 26.25 20.3623 26.175L20.053 25.5422L20.4139 26.1516C20.7561 25.9828 21.0936 25.8 21.4452 25.5891L21.4873 25.5609L21.7311 25.4063C21.8329 25.3475 21.9315 25.2834 22.0264 25.2141L22.1577 25.125C22.317 25.0172 22.4764 24.8953 22.6264 24.7875C22.7764 24.6797 22.978 24.5063 23.1327 24.3703C23.2873 24.2344 23.4467 24.1031 23.5686 23.9813L23.7092 23.8453L23.6155 23.7516C23.7724 23.7263 23.9161 23.6487 24.0233 23.5313L24.1452 23.4C24.2717 23.2641 24.3983 23.1234 24.5202 22.9734C26.0389 21.1621 27.009 18.955 27.3167 16.6114C27.6243 14.2678 27.2566 11.885 26.2568 9.74311C25.257 7.60125 23.6667 5.78925 21.6726 4.52003C19.6785 3.25082 17.3636 2.57712 14.9998 2.57813ZM23.4373 22.0875V22.1109C23.3248 22.2422 23.217 22.3688 23.1186 22.4719L22.9639 22.6359C22.8732 22.7375 22.8131 22.8626 22.7905 22.9969L22.6967 22.9031L22.5983 22.9969C22.4764 23.1141 22.3545 23.2266 22.2139 23.3438C22.0733 23.4609 21.9186 23.5922 21.7452 23.7188C21.5717 23.8453 21.4827 23.9203 21.328 24.0328L21.2295 24.0938C21.1545 24.15 21.0748 24.2016 20.967 24.2672L20.7467 24.4078H20.7186C20.4045 24.6 20.1045 24.7688 19.8327 24.8766C19.8003 24.8881 19.769 24.9022 19.7389 24.9188C19.6123 24.9797 19.4905 25.0359 19.3498 25.0922C18.8414 25.3087 18.3182 25.4888 17.7842 25.6313L17.2592 25.7813C17.1045 25.8141 16.9545 25.8469 16.7905 25.8703C16.7342 25.8703 16.678 25.8938 16.5748 25.9031C16.4717 25.9125 16.3686 25.9313 16.2514 25.9453H16.0498C15.9233 25.9453 15.7967 25.9688 15.6655 25.9734H15.5155C15.1706 25.9969 14.8244 25.9969 14.4795 25.9734H14.353C14.2217 25.9734 14.0952 25.9734 13.9873 25.9453H13.7577L13.4014 25.8984L13.2045 25.8703C13.0452 25.8703 12.8952 25.8141 12.7358 25.7813C12.5764 25.7484 12.3936 25.7063 12.2389 25.6688C11.6963 25.5277 11.1651 25.3459 10.6498 25.125C10.5233 25.0734 10.3967 25.0172 10.2842 24.9609L10.2139 24.9281C9.89221 24.777 9.57922 24.608 9.27641 24.4219H9.24829L8.99985 24.2672C8.92016 24.2156 8.84047 24.1641 8.76547 24.1078L8.71391 24.0797C8.69216 24.057 8.66685 24.0379 8.63891 24.0234C8.50766 23.9297 8.37641 23.8359 8.2311 23.7234C8.08579 23.6109 7.9311 23.4844 7.76235 23.3438C7.5936 23.2031 7.50922 23.1234 7.3686 22.9875L7.28891 22.9125L7.19516 22.8188L7.0311 22.6266L6.92329 22.5C6.8061 22.3781 6.69829 22.2516 6.58579 22.1203V22.0969C5.23761 20.4907 4.37596 18.533 4.10204 16.454C3.82811 14.3749 4.15331 12.2609 5.03943 10.3603C5.9255 8.45972 7.33569 6.85153 9.10429 5.72475C10.8728 4.59797 12.9263 3.9994 15.0233 3.9994C17.1203 3.9994 19.1737 4.59797 20.9423 5.72475C22.7108 6.85153 24.121 8.45972 25.0071 10.3603C25.8932 12.2609 26.2184 14.3749 25.9445 16.454C25.6706 18.533 24.8089 20.4907 23.4608 22.0969L23.4373 22.0875Z" fill="white"/>
<path d="M22.1155 14.297H15.703V7.88452C15.703 7.69805 15.629 7.51922 15.4971 7.38737C15.3652 7.25546 15.1864 7.1814 14.9999 7.1814C14.8134 7.1814 14.6346 7.25546 14.5027 7.38737C14.3709 7.51922 14.2968 7.69805 14.2968 7.88452V14.297H7.88428C7.69781 14.297 7.51898 14.3711 7.38712 14.503C7.25526 14.6348 7.18115 14.8137 7.18115 15.0001C7.18115 15.1866 7.25526 15.3655 7.38712 15.4973C7.51898 15.6292 7.69781 15.7033 7.88428 15.7033H14.2968V22.1158C14.2968 22.3022 14.3709 22.4811 14.5027 22.613C14.6346 22.7448 14.8134 22.8189 14.9999 22.8189C15.1864 22.8189 15.3652 22.7448 15.4971 22.613C15.629 22.4811 15.703 22.3022 15.703 22.1158V15.7033H22.1155C22.302 15.7033 22.4809 15.6292 22.6127 15.4973C22.7446 15.3655 22.8187 15.1866 22.8187 15.0001C22.8187 14.8137 22.7446 14.6348 22.6127 14.503C22.4809 14.3711 22.302 14.297 22.1155 14.297Z" fill="white"/>
</svg>