<svg xmlns="http://www.w3.org/2000/svg" width="24" height="24" viewBox="0 0 24 24" fill="none">
<path d="M21.5 5.99312V2.625C21.5 2.12771 21.3024 1.6508 20.9508 1.29917C20.5992 0.94754 20.1222 0.749996 19.625 0.749996H18.7531C18.3831 0.748696 18.0211 0.857478 17.7131 1.0625L15.5519 2.5C13.6028 3.80437 11.3103 4.5005 8.965 4.5H3.375C2.5465 4.501 1.75222 4.83056 1.16639 5.41637C0.58055 6.00225 0.250994 6.7965 0.25 7.625V12.625C0.250994 13.4535 0.58055 14.2477 1.16639 14.8336C1.75222 15.4194 2.5465 15.749 3.375 15.75H4.625V21.375C4.625 21.8723 4.82254 22.3492 5.17418 22.7008C5.52581 23.0524 6.00275 23.25 6.5 23.25H7.125C7.62225 23.25 8.09919 23.0524 8.45081 22.7008C8.80244 22.3492 9 21.8723 9 21.375V15.75C11.3326 15.7543 13.612 16.4477 15.5519 17.7431L17.7125 19.1806C18.0208 19.3856 18.3829 19.4943 18.7531 19.4931H19.625C20.1222 19.4931 20.5992 19.2956 20.9508 18.9439C21.3024 18.5923 21.5 18.1154 21.5 17.6181V14.2569C22.2541 13.8619 22.8857 13.2681 23.3264 12.5397C23.7671 11.8114 24.0001 10.9763 24.0001 10.125C24.0001 9.27368 23.7671 8.43862 23.3264 7.71031C22.8857 6.98193 22.2541 6.38812 21.5 5.99312ZM1.5 12.625V7.625C1.5 7.12775 1.69754 6.65081 2.04918 6.29918C2.40081 5.94756 2.87772 5.75 3.375 5.75H5.875V14.5H3.375C2.87772 14.5 2.40081 14.3024 2.04918 13.9508C1.69754 13.5992 1.5 13.1223 1.5 12.625ZM7.125 22H6.5C6.33425 22 6.17525 21.9341 6.05806 21.8169C5.94088 21.6997 5.875 21.5407 5.875 21.375V15.75H7.75V21.375C7.75 21.5407 7.68412 21.6997 7.56694 21.8169C7.44975 21.9341 7.29075 22 7.125 22ZM20.25 17.625C20.25 17.7907 20.1841 17.9497 20.0669 18.0669C19.9497 18.1841 19.7908 18.25 19.625 18.25H18.7531C18.6299 18.2501 18.5093 18.2136 18.4069 18.145L16.2456 16.7075C14.0909 15.2669 11.5569 14.4986 8.965 14.5H7.125V5.75H8.965C11.5566 5.75237 14.0906 4.98518 16.2456 3.54562L18.4075 2.10437C18.5099 2.03634 18.6302 2.00003 18.7531 2H19.625C19.7908 2 19.9497 2.06585 20.0669 2.18306C20.1841 2.30027 20.25 2.45924 20.25 2.625V17.625ZM21.5 12.7769V7.47312C21.891 7.79562 22.2059 8.20062 22.4221 8.65906C22.6382 9.11756 22.7502 9.61812 22.7502 10.125C22.7502 10.6319 22.6382 11.1324 22.4221 11.5909C22.2059 12.0494 21.891 12.4544 21.5 12.7769Z" fill="white"/>
</svg>
