<svg xmlns="http://www.w3.org/2000/svg" width="32" height="32" viewBox="0 0 32 32" fill="none">
<path d="M20.6226 16.5175C22.0083 15.5364 23.046 14.14 23.5855 12.5302C24.125 10.9203 24.1383 9.18061 23.6236 7.5627C23.1088 5.94478 22.0927 4.53258 20.7222 3.53042C19.3517 2.52826 17.6979 1.9881 16.0001 1.9881C14.3023 1.9881 12.6485 2.52826 11.278 3.53042C9.90748 4.53258 8.89136 5.94478 8.37662 7.5627C7.86188 9.18061 7.87523 10.9203 8.41472 12.5302C8.95422 14.14 9.99189 15.5364 11.3776 16.5175C8.67533 17.305 6.30101 18.9469 4.61039 21.1973C2.91977 23.4477 2.0039 26.1853 2 29C2 29.2652 2.10536 29.5196 2.29289 29.7071C2.48043 29.8946 2.73478 30 3 30H29C29.2652 30 29.5196 29.8946 29.7071 29.7071C29.8946 29.5196 30 29.2652 30 29C29.9961 26.1854 29.0803 23.4477 27.3897 21.1974C25.6991 18.947 23.3248 17.305 20.6226 16.5175ZM10 10C10 8.81332 10.3519 7.65328 11.0112 6.66658C11.6705 5.67989 12.6075 4.91085 13.7039 4.45673C14.8003 4.0026 16.0067 3.88378 17.1705 4.11529C18.3344 4.3468 19.4035 4.91825 20.2426 5.75736C21.0818 6.59648 21.6532 7.66558 21.8847 8.82946C22.1162 9.99335 21.9974 11.1997 21.5433 12.2961C21.0892 13.3925 20.3201 14.3295 19.3334 14.9888C18.3467 15.6481 17.1867 16 16 16C14.4093 15.9982 12.8842 15.3655 11.7594 14.2406C10.6345 13.1158 10.0018 11.5907 10 10ZM4.045 28C4.29772 25.2683 5.56076 22.7292 7.58694 20.8796C9.61313 19.0301 12.2566 18.0032 15 18H17C19.7434 18.0032 22.3869 19.0301 24.4131 20.8796C26.4392 22.7292 27.7023 25.2683 27.955 28H4.045Z" fill="#FF0000"/>
</svg>