<svg xmlns="http://www.w3.org/2000/svg" width="30" height="30" viewBox="0 0 30 30" fill="none">
<path d="M1.86255 21.7704C1.86255 21.2305 2.30021 20.7929 2.8401 20.7929H27.1596C27.6996 20.7929 28.1372 21.2305 28.1372 21.7704C28.1372 22.3103 27.6996 22.748 27.1596 22.748H2.8401C2.30021 22.748 1.86255 22.3103 1.86255 21.7704Z" fill="#00A02D"/>
<path d="M7.61596 17.4191C7.97959 17.8183 7.95079 18.4364 7.55171 18.8001L4.29155 21.7704L7.55171 24.7408C7.95079 25.1044 7.97953 25.7227 7.61596 26.1218C7.25238 26.5209 6.63407 26.5495 6.23499 26.186L2.18174 22.493C2.0812 22.4013 2.00089 22.2897 1.94593 22.1653C1.89098 22.0409 1.86259 21.9064 1.86259 21.7703C1.86259 21.6343 1.89098 21.4998 1.94593 21.3754C2.00089 21.2509 2.0812 21.1394 2.18174 21.0477L6.23499 17.3548C6.63407 16.9912 7.25235 17.02 7.61596 17.4191V17.4191ZM1.86255 8.22959C1.86255 7.68971 2.30021 7.25204 2.8401 7.25204H27.1596C27.6996 7.25204 28.1372 7.68971 28.1372 8.22959C28.1372 8.76948 27.6996 9.20714 27.1596 9.20714H2.8401C2.30021 9.20714 1.86255 8.76948 1.86255 8.22959Z" fill="#00A02D"/>
<path d="M22.3838 3.8782C22.7475 3.47912 23.3658 3.45038 23.7649 3.81396L27.8181 7.50694C27.9187 7.59855 27.999 7.71014 28.0539 7.83457C28.1089 7.959 28.1373 8.09353 28.1373 8.22955C28.1373 8.36558 28.1089 8.5001 28.0539 8.62453C27.999 8.74896 27.9187 8.86055 27.8181 8.95216L23.7649 12.6452C23.3658 13.0087 22.7475 12.98 22.3838 12.5809C22.0203 12.1818 22.049 11.5635 22.4481 11.1999L25.7083 8.22958L22.4481 5.2592C22.049 4.89557 22.0203 4.27729 22.3838 3.8782Z" fill="#00A02D"/>
</svg>