<svg xmlns="http://www.w3.org/2000/svg" width="30" height="30" viewBox="0 0 30 30" fill="none">
<path d="M12.6127 5.24118C12.237 5.34184 12.0492 5.43269 11.7202 5.66722C11.0093 6.17429 10.6705 6.89001 10.6692 7.88455V8.22217L7.80987 8.24183C5.39121 8.25779 4.90383 8.2725 4.64476 8.33637C3.6687 8.57698 3.03522 8.93795 2.3857 9.62549C1.89337 10.1449 1.63679 10.6027 1.41211 11.3615C1.336 11.6181 1.32741 12.0073 1.31268 16.1583C1.29551 20.9489 1.29671 20.9723 1.5177 21.4105C1.64783 21.6684 1.96708 22.0072 2.24329 22.1816C2.60669 22.4111 2.79088 22.4541 3.55576 22.4836L4.28013 22.5118L4.35624 22.7021C4.59686 23.3 5.18865 23.9887 5.74606 24.3202C6.3489 24.6787 7.21814 24.8801 7.89214 24.8175C8.82152 24.7316 9.48574 24.4259 10.1341 23.7838C10.5036 23.4191 10.592 23.2987 10.7688 22.9256L10.975 22.4922L17.611 22.4897L17.8062 22.901C18.215 23.7629 19.0572 24.4492 20.0272 24.7095C20.5122 24.8396 21.379 24.8469 21.8467 24.7266C22.9099 24.4516 23.8283 23.6929 24.1978 22.7856L24.3083 22.5118L25.5017 22.4861C26.6348 22.4627 26.7098 22.4554 27.0081 22.34C27.8319 22.0257 28.4213 21.3971 28.6238 20.6199C28.6852 20.3879 28.6938 19.4585 28.6938 13.8293C28.6938 6.64828 28.7098 7.05466 28.4029 6.47763C28.2199 6.13509 27.7067 5.64155 27.3372 5.45493C26.738 5.15294 27.1739 5.16891 19.6749 5.17257C13.9806 5.17503 12.8168 5.18607 12.613 5.24133L12.6127 5.24118ZM26.5217 7.09875C26.6347 7.16259 26.7562 7.27307 26.793 7.34306C26.847 7.44984 26.8581 8.13126 26.8581 11.4732V15.4757H12.5046V11.4879C12.5046 7.61689 12.5071 7.49408 12.5967 7.34801C12.7096 7.16262 12.8815 7.04601 13.1087 7.00181C13.2032 6.98338 16.2137 6.97113 19.7986 6.97479L26.3167 6.98092L26.5217 7.09878L26.5217 7.09875ZM7.28066 11.4756V12.8875H3.12844L3.14561 12.3105C3.16157 11.769 3.17139 11.7125 3.31746 11.4179C3.61699 10.809 4.30087 10.2835 4.98718 10.135C5.17746 10.0932 5.62928 10.07 6.27999 10.0675L7.2806 10.0638V11.4757L7.28066 11.4756ZM10.6692 15.0336V20.0034L10.4531 19.7174C10.0246 19.1465 9.28925 18.6591 8.55138 18.4578C8.3255 18.3964 8.07255 18.3743 7.5864 18.3743C6.96636 18.3755 6.90132 18.3841 6.48267 18.5277C5.93016 18.718 5.56922 18.9341 5.15549 19.3257C4.7872 19.6719 4.50724 20.0673 4.38202 20.4147L4.29609 20.6554L3.72888 20.6431L3.16166 20.6296L3.15062 17.6781L3.13834 14.7267L5.40967 14.7132C7.66503 14.6996 7.68223 14.6984 7.95232 14.5892C8.49378 14.3706 8.95904 13.801 9.06832 13.2226C9.0941 13.0827 9.11619 12.3154 9.11619 11.5161V10.0637H10.6693V15.0335L10.6692 15.0336ZM26.8581 18.7672V20.2221L26.7353 20.3681C26.5058 20.6406 26.4456 20.6529 25.3075 20.6529C24.4615 20.6529 24.27 20.6407 24.27 20.5891C24.27 20.4037 23.9005 19.8107 23.5726 19.467C23.1429 19.0164 22.6961 18.7316 22.1055 18.529C21.6844 18.3841 21.6192 18.3756 20.9993 18.3743C20.2553 18.3743 19.9496 18.4369 19.3934 18.7021C18.6911 19.0372 18.1252 19.6044 17.7863 20.3116L17.623 20.6529H12.5046V17.311H26.8581V18.7671L26.8581 18.7672ZM8.36227 20.3313C8.91229 20.5891 9.21308 20.9967 9.2487 21.532C9.30762 22.4393 8.28495 23.1722 7.2561 22.9586C6.49245 22.8015 5.99523 22.2637 5.99646 21.5983C5.99769 21.2214 6.08115 21.0089 6.34143 20.7266C6.72691 20.3079 7.05718 20.1766 7.67971 20.1962C8.01853 20.2072 8.15608 20.2342 8.36233 20.3312L8.36227 20.3313ZM21.7385 20.3386C22.2898 20.6087 22.5979 21.0593 22.5954 21.5958C22.593 22.136 22.2689 22.5878 21.6894 22.8555C21.4622 22.961 21.3567 22.9794 20.976 22.9807C20.5832 22.9819 20.4947 22.9659 20.2455 22.8505C19.7396 22.6148 19.3971 22.1925 19.3431 21.737C19.2683 21.1047 19.6832 20.5155 20.3781 20.2674C20.7526 20.1336 21.3885 20.1667 21.7385 20.3386L21.7385 20.3386Z" fill="#00A02D"/>
</svg>