<svg xmlns="http://www.w3.org/2000/svg" width="30" height="30" viewBox="0 0 30 30" fill="none">
<path d="M1.56226 5.2778C1.56226 4.76007 1.98199 4.3403 2.49973 4.3403H27.4998C28.0175 4.3403 28.4373 4.76007 28.4373 5.2778V27.5001C28.4373 28.0178 28.0175 28.4377 27.4998 28.4377H2.49973C1.98199 28.4377 1.56226 28.0179 1.56226 27.5001V5.2778ZM3.43723 6.21527V26.5625H26.5623V6.21527H3.43723Z" fill="#00A02D"/>
<path d="M8.05518 1.56256C8.57291 1.56256 8.99268 1.9823 8.99268 2.50003V8.05563C8.99268 8.57336 8.57294 8.9931 8.05518 8.9931C7.53741 8.9931 7.11768 8.57336 7.11768 8.05563V2.50003C7.11768 1.9823 7.53741 1.56256 8.05518 1.56256ZM21.9445 1.56256C22.4622 1.56256 22.8819 1.9823 22.8819 2.50003V8.05563C22.8819 8.57336 22.4622 8.9931 21.9445 8.9931C21.4266 8.9931 21.0069 8.57336 21.0069 8.05563V2.50003C21.0069 1.9823 21.4266 1.56256 21.9445 1.56256ZM1.56226 13.6112C1.56226 13.0935 1.98199 12.6737 2.49973 12.6737H27.4998C28.0175 12.6737 28.4373 13.0935 28.4373 13.6112C28.4373 14.129 28.0175 14.5488 27.4998 14.5488H2.49973C1.98199 14.5488 1.56226 14.129 1.56226 13.6112Z" fill="#00A02D"/>
</svg>