<svg xmlns="http://www.w3.org/2000/svg" width="30" height="30" viewBox="0 0 30 30" fill="none">
<g clip-path="url(#clip0_6_223)">
<path d="M17.1932 1.50021C18.7185 0.924092 20.3748 0.787648 21.9738 1.1064C22.0106 1.11376 22.047 1.12278 22.0827 1.13356C22.4585 1.2468 22.8049 1.44121 23.0973 1.70305C23.3897 1.96489 23.621 2.28777 23.7748 2.64886C23.9622 3.08884 23.8633 3.59857 23.5252 3.93672L19.564 7.89648C19.4205 8.04448 19.3388 8.24161 19.3355 8.44774C19.3323 8.65387 19.4077 8.85348 19.5465 9.00593L21.0188 10.3228C21.0403 10.342 21.0611 10.3621 21.0811 10.3829C21.1568 10.4614 21.2476 10.5238 21.3479 10.5665C21.4483 10.6091 21.5563 10.6311 21.6654 10.6311C21.7745 10.6311 21.8825 10.6091 21.9829 10.5665C22.0833 10.5238 22.174 10.4614 22.2497 10.3829L22.2647 10.3675L26.2311 6.40269C26.6143 6.01964 27.2101 5.94924 27.672 6.23251C27.9922 6.42887 28.2675 6.69035 28.4801 6.99997C28.6917 7.30826 28.8364 7.65744 28.905 8.02504C29.2093 9.60859 29.0686 11.2455 28.4986 12.7539C27.928 14.2638 26.9497 15.5858 25.6726 16.5729C24.5084 17.4728 23.1356 18.0637 21.6819 18.2909C20.2281 18.518 18.7405 18.374 17.3573 17.8722L7.08875 28.1185C6.79509 28.4173 6.44488 28.6546 6.05854 28.8165C5.6722 28.9784 5.25748 29.0618 4.83857 29.0618C4.41835 29.0618 4.00237 28.9779 3.61502 28.8149C3.22994 28.6529 2.88086 28.4161 2.58801 28.1181L1.88225 27.4127C1.58315 27.119 1.3456 26.7685 1.18351 26.3819C1.02142 25.9953 0.938036 25.5802 0.938233 25.161C0.938429 24.7418 1.0222 24.3268 1.18466 23.9403C1.34711 23.5539 1.58498 23.2037 1.88436 22.9102C1.88545 22.9092 1.8865 22.9082 1.88753 22.9071L12.1379 12.7541C11.6078 11.3688 11.4405 9.87092 11.652 8.40277C11.8635 6.93461 12.4467 5.54486 13.3463 4.36548C14.335 3.06918 15.6677 2.07651 17.1929 1.50045L17.1932 1.50021ZM20.8397 3.30742C19.8833 3.22163 18.9198 3.35334 18.0215 3.69267C16.9065 4.11376 15.9325 4.83927 15.2101 5.78658C14.4877 6.73389 14.0457 7.86478 13.9347 9.05075C13.8236 10.2367 14.0479 11.4301 14.5821 12.4947C14.8094 12.9478 14.7195 13.496 14.3593 13.8527L3.52595 24.583C3.44875 24.6585 3.38737 24.7486 3.3454 24.8481C3.30349 24.9476 3.2819 25.0544 3.2819 25.1624C3.2819 25.2703 3.30349 25.3772 3.3454 25.4767C3.38731 25.5762 3.44869 25.6663 3.52592 25.7418L3.53533 25.751L4.25849 26.4741C4.33405 26.5513 4.42427 26.6127 4.52386 26.6545C4.62353 26.6966 4.73055 26.7182 4.83869 26.7182C4.94682 26.7182 5.05384 26.6966 5.15351 26.6545C5.25313 26.6127 5.34337 26.5513 5.41891 26.4741L5.4289 26.464L16.2567 15.6599C16.4279 15.4891 16.6479 15.3754 16.8863 15.3345C17.1247 15.2936 17.37 15.3275 17.5884 15.4315C18.6545 15.9392 19.8406 16.1414 21.0148 16.0155C22.1891 15.8897 23.3052 15.4409 24.2394 14.7187C25.1736 13.9965 25.8892 13.0297 26.3063 11.9256C26.6294 11.0705 26.7651 10.156 26.704 9.24399L23.9286 12.0184C23.6359 12.3196 23.2861 12.5593 22.8996 12.7235C22.5093 12.8894 22.0897 12.9749 21.6656 12.9749C21.2416 12.9749 20.8219 12.8894 20.4316 12.7235C20.0564 12.564 19.7156 12.3334 19.4281 12.0442L17.9494 10.7218C17.9303 10.7047 17.9118 10.687 17.8939 10.6687C17.3158 10.0792 16.9919 9.28635 16.9919 8.46061C16.9919 7.63487 17.3158 6.84207 17.8939 6.25249L17.902 6.24414L20.8398 3.30742H20.8397Z" fill="#00A02D"/>
</g>
<defs>
<clipPath id="clip0_6_223">
<rect width="30" height="30" fill="white"/>
</clipPath>
</defs>
</svg>