<svg xmlns="http://www.w3.org/2000/svg" width="30" height="30" viewBox="0 0 30 30" fill="none">
<path d="M15.0025 1.91411C15.3109 1.91411 15.6043 2.00745 15.8543 2.18247L17.8012 3.54109C19.2999 4.58634 21.0753 5.13967 22.9339 5.13967L23.3591 5.13469C23.7757 5.13469 24.1225 5.16144 24.3908 5.21473C25.226 5.38146 25.8212 6.15153 25.7744 7.00181L25.2026 16.7504C25.1325 18.124 24.7459 19.4892 24.0841 20.6995C23.4207 21.9098 22.4787 22.9717 21.3569 23.7735L15.3391 27.981C15.24 28.0507 15.1217 28.0879 15.0006 28.0876C14.8806 28.0876 14.764 28.0509 14.6638 27.981L8.64928 23.7785C7.52232 22.9734 6.58057 21.9097 5.91879 20.7012C5.257 19.4927 4.86855 18.1256 4.79847 16.7504L4.22505 7.00014C4.18005 6.15003 4.77524 5.38146 5.60525 5.21139C5.89371 5.15309 6.27369 5.12303 6.7372 5.12303L7.17729 5.12801C8.99426 5.12801 10.7529 4.56785 12.26 3.511L14.1487 2.18411C14.3988 2.00742 14.6954 1.91241 15.0021 1.91241L15.0025 1.91411ZM15.0025 3.09437C14.9409 3.09437 14.8791 3.11429 14.8274 3.151L12.9371 4.47788C11.2317 5.67475 9.23636 6.30996 7.16929 6.30996L6.73585 6.30498C6.35405 6.30498 6.05229 6.32675 5.84074 6.36826C5.57402 6.42489 5.39068 6.6617 5.40398 6.93507L5.97741 16.682C6.10412 19.1458 7.32606 21.3796 9.33135 22.8133L15.0008 26.779L20.6769 22.81C22.6774 21.3796 23.8991 19.146 24.0242 16.6872L24.5993 6.93525C24.6109 6.66853 24.4226 6.42507 24.1575 6.37178C23.9659 6.33343 23.6975 6.31515 23.3591 6.31515L22.9339 6.32013C20.8318 6.32013 18.8231 5.69338 17.1262 4.50815L15.1792 3.1512C15.1292 3.11449 15.0674 3.09457 15.0025 3.09457V3.09437ZM15.0025 8.58047C18.2214 8.58047 20.842 11.2027 20.842 14.4216C20.842 17.6422 18.2214 20.2628 15.0008 20.2628C11.7803 20.2628 9.16134 17.6439 9.16134 14.4216C9.16134 11.2027 11.7802 8.58047 15.0008 8.58047H15.0025ZM15.0025 9.76073C12.4319 9.76073 10.3416 11.8512 10.3416 14.4216C10.3416 16.992 12.4321 19.0825 15.0008 19.0825C17.5714 19.0825 19.6617 16.992 19.6617 14.4216C19.6617 11.8512 17.5712 9.76073 15.0008 9.76073H15.0025ZM17.0861 12.1345C17.2195 12.1345 17.3529 12.1812 17.4561 12.2662C17.7095 12.468 17.7479 12.8413 17.5461 13.0931L14.8073 16.4903C14.704 16.6187 14.5472 16.6988 14.3805 16.707L14.3755 16.7104H14.3505C14.1953 16.7104 14.0437 16.6471 13.9338 16.537L12.5001 15.1033C12.3902 14.9915 12.3284 14.8449 12.3284 14.6866C12.3284 14.5284 12.39 14.3816 12.5018 14.27C12.6117 14.1582 12.7602 14.0966 12.9185 14.0966C13.0752 14.0966 13.2235 14.1582 13.3351 14.27L14.302 15.2368L16.6274 12.3529C16.7409 12.2145 16.9107 12.1345 17.0875 12.1345H17.0861Z" fill="#00A02D"/>
</svg>