<svg xmlns="http://www.w3.org/2000/svg" width="30" height="24" viewBox="0 0 30 24" fill="none">
<g clip-path="url(#clip0_8_560)">
<path d="M6.25 22C5.91848 22 5.60054 21.8946 5.36612 21.7071C5.1317 21.5196 5 21.2652 5 21V3C5 2.73478 5.1317 2.48043 5.36612 2.29289C5.60054 2.10536 5.91848 2 6.25 2H23.75C24.0815 2 24.3995 2.10536 24.6339 2.29289C24.8683 2.48043 25 2.73478 25 3V6H22.5V4H7.5V20H22.5V18H25V21C25 21.2652 24.8683 21.5196 24.6339 21.7071C24.3995 21.8946 24.0815 22 23.75 22H6.25ZM22.5 16V13H13.75V11H22.5V8L28.75 12L22.5 16Z" fill="white"/>
</g>
<defs>
<clipPath id="clip0_8_560">
<rect width="30" height="24" fill="white"/>
</clipPath>
</defs>
</svg>