<svg xmlns="http://www.w3.org/2000/svg" width="30" height="30" viewBox="0 0 30 30" fill="none">
<path d="M14.99 8.25064C16.2325 8.25064 17.2397 7.24339 17.2397 6.0009C17.2397 4.75839 16.2325 3.75114 14.99 3.75114C13.7475 3.75114 12.7402 4.75839 12.7402 6.0009C12.7402 7.24339 13.7475 8.25064 14.99 8.25064Z" fill="#333333"/>
<path d="M17.2397 14.9999C17.2397 16.2424 16.2325 17.2497 14.99 17.2497C13.7475 17.2497 12.7402 16.2424 12.7402 14.9999C12.7402 13.7574 13.7475 12.7501 14.99 12.7501C16.2325 12.7501 17.2397 13.7574 17.2397 14.9999Z" fill="#333333"/>
<path d="M17.2397 23.9989C17.2397 25.2414 16.2325 26.2487 14.99 26.2487C13.7475 26.2487 12.7402 25.2414 12.7402 23.9989C12.7402 22.7563 13.7475 21.7491 14.99 21.7491C16.2325 21.7491 17.2397 22.7563 17.2397 23.9989Z" fill="#333333"/>
</svg>